<svg xmlns="http://www.w3.org/2000/svg" width="45.1" height="35" viewBox="0 0 45.1 35"><defs><style>.cls-1{fill:none;}.cls-2{fill:#d84012;}.cls-3{fill:#002fa6;}.cls-4{fill:#fff;}</style></defs><g id="Layer_2" data-name="Layer 2"><g id="clock"><rect class="cls-1" width="45.1" height="35"/><g id="Orange_BG" data-name="Orange BG"><path class="cls-2" d="M32.9,6.58v24A4.43,4.43,0,0,1,29.14,35h0a4.44,4.44,0,0,1-.63,0h-24A4.43,4.43,0,0,1,.05,30.57v-24A4.36,4.36,0,0,1,.63,4.39,4.42,4.42,0,0,1,4.48,2.15h24a4.44,4.44,0,0,1,4.22,3.07A4.35,4.35,0,0,1,32.9,6.58Z"/></g><g id="Blue_BG" data-name="Blue BG"><path class="cls-3" d="M35.05,4.4V28.16a4.39,4.39,0,0,1-3.73,4.34h0c-.2,0-.41,0-.62,0H6.89A4.4,4.4,0,0,1,2.5,28.16V4.4A4.4,4.4,0,0,1,6.89,0H30.66a4.42,4.42,0,0,1,4.39,4.4Z"/></g><path class="cls-4" d="M27.67,13a9.4,9.4,0,0,0-5-5,9.39,9.39,0,0,0-7.26,0,9.34,9.34,0,0,0-4.95,5,9.25,9.25,0,0,0,0,7.25A9.32,9.32,0,0,0,27.67,13ZM19.08,24.09a7.47,7.47,0,1,1,7.47-7.47A7.48,7.48,0,0,1,19.08,24.09Z"/><path class="cls-4" d="M23.87,18.74l-3.46-2.48a1.32,1.32,0,0,0-.41-.6V11.32a.92.92,0,1,0-1.84,0v4.34a1.4,1.4,0,0,0,.92,2.45,1.53,1.53,0,0,0,.57-.12l3.14,2.25a.89.89,0,0,0,.54.17.92.92,0,0,0,.54-1.67Z"/></g></g></svg>