<svg xmlns="http://www.w3.org/2000/svg" width="45.1" height="35" viewBox="0 0 45.1 35"><defs><style>.cls-1{fill:#d84012;}.cls-2{fill:#002fa6;}.cls-3{fill:none;}.cls-4{fill:#fff;}</style></defs><g id="Layer_2" data-name="Layer 2"><g id="questions-or-quiz"><g id="Orange_BG" data-name="Orange BG"><path class="cls-1" d="M32.9,6.58v24A4.43,4.43,0,0,1,29.14,35h0a4.44,4.44,0,0,1-.63,0h-24A4.43,4.43,0,0,1,.05,30.57v-24A4.36,4.36,0,0,1,.63,4.39,4.42,4.42,0,0,1,4.48,2.15h24a4.44,4.44,0,0,1,4.22,3.07A4.35,4.35,0,0,1,32.9,6.58Z"/></g><g id="Blue_BG" data-name="Blue BG"><path class="cls-2" d="M35.05,4.4V28.16a4.39,4.39,0,0,1-3.73,4.34h0c-.2,0-.41,0-.62,0H6.89A4.4,4.4,0,0,1,2.5,28.16V4.4A4.4,4.4,0,0,1,6.89,0H30.66a4.42,4.42,0,0,1,4.39,4.4Z"/></g><rect class="cls-3" width="45.1" height="35"/><path class="cls-4" d="M28.56,13.67A4.63,4.63,0,0,0,24,9.1c-3.16,0-6.33,0-9.5,0a4.63,4.63,0,0,0-4.56,4.57c0,1,0,1.95,0,2.93a4.64,4.64,0,0,0,4.73,4.92c.56,0,.72.18.71.73,0,1.26,0,2.52,0,3.94.29-.25.46-.38.61-.52,1.45-1.26,2.89-2.54,4.35-3.78a1.71,1.71,0,0,1,.92-.35c.94-.05,1.88,0,2.82,0a4.5,4.5,0,0,0,4.38-3.72A27,27,0,0,0,28.56,13.67ZM20.13,19h-2V17.18h2Zm1.34-4.15c-.23.23-.48.43-.72.64a1.37,1.37,0,0,0-.68,1.2h-1.9a1.92,1.92,0,0,1,.49-1.59c.29-.28.61-.54.92-.82a2.76,2.76,0,0,0,.29-.3.54.54,0,0,0-.36-.88c-.57-.08-.94.22-1.05.86l0,.18-1.94-.24c0-.15,0-.31.08-.46a2.3,2.3,0,0,1,2.07-1.86l.37-.06h.66c.26,0,.53.08.79.15a2.15,2.15,0,0,1,1.35,1A1.71,1.71,0,0,1,21.47,14.82Z"/></g></g></svg>