<svg xmlns="http://www.w3.org/2000/svg" width="45.1" height="35" viewBox="0 0 45.1 35"><defs><style>.cls-1{fill:#d84012;}.cls-2{fill:none;}.cls-3{fill:#002fa6;}.cls-4{fill:#fff;}</style></defs><g id="Layer_2" data-name="Layer 2"><g id="tip"><g id="Orange_BG" data-name="Orange BG"><path class="cls-1" d="M32.9,6.58v24A4.43,4.43,0,0,1,29.14,35h0a4.44,4.44,0,0,1-.63,0h-24A4.43,4.43,0,0,1,.05,30.57v-24A4.36,4.36,0,0,1,.63,4.39,4.42,4.42,0,0,1,4.48,2.15h24a4.44,4.44,0,0,1,4.22,3.07A4.35,4.35,0,0,1,32.9,6.58Z"/></g><rect class="cls-2" width="45.1" height="35"/><g id="Blue_BG" data-name="Blue BG"><path class="cls-3" d="M35.05,4.4V28.16a4.39,4.39,0,0,1-3.73,4.34h0c-.2,0-.41,0-.62,0H6.89A4.4,4.4,0,0,1,2.5,28.16V4.4A4.4,4.4,0,0,1,6.89,0H30.66a4.42,4.42,0,0,1,4.39,4.4Z"/></g><path class="cls-4" d="M25.31,12.82a6.34,6.34,0,1,0-11.38,3.81h0s2.53,3.8,2.53,5.07h5.08c0-1.27,2.54-5.07,2.54-5.07h0a6.32,6.32,0,0,0,1.29-3.81"/><path class="cls-4" d="M16.43,24.24a1.26,1.26,0,0,0,.64,1.07v.2a1.27,1.27,0,0,0,1.26,1.26H19.6a1.27,1.27,0,0,0,1.27-1.26v-.2a1.25,1.25,0,0,0,.63-1.07V23H16.43v1.27Z"/></g></g></svg>