<svg xmlns="http://www.w3.org/2000/svg" width="45.1" height="35" viewBox="0 0 45.1 35"><defs><style>.cls-1{fill:#d84012;}.cls-2{fill:#002fa6;}.cls-3{fill:none;}.cls-4{fill:#fff;}</style></defs><g id="Layer_2" data-name="Layer 2"><g id="video"><g id="Orange_BG" data-name="Orange BG"><path class="cls-1" d="M32.9,6.58v24A4.43,4.43,0,0,1,29.14,35h0a4.44,4.44,0,0,1-.63,0h-24A4.43,4.43,0,0,1,.05,30.57v-24A4.36,4.36,0,0,1,.63,4.39,4.42,4.42,0,0,1,4.48,2.15h24a4.44,4.44,0,0,1,4.22,3.07A4.35,4.35,0,0,1,32.9,6.58Z"/></g><g id="Blue_BG" data-name="Blue BG"><path class="cls-2" d="M35.05,4.4V28.16a4.39,4.39,0,0,1-3.73,4.34h0c-.2,0-.41,0-.62,0H6.89A4.4,4.4,0,0,1,2.5,28.16V4.4A4.4,4.4,0,0,1,6.89,0H30.66a4.42,4.42,0,0,1,4.39,4.4Z"/></g><rect class="cls-3" width="45.1" height="35"/><g id="video_camera" data-name="video camera"><g id="_733-video-camera-selected_2x.png" data-name="733-video-camera-selected@2x.png"><path class="cls-4" d="M29.29,10.91a.38.38,0,0,0-.21.07h0l-1.67,1.08-3,1.95-1,.63A2.1,2.1,0,0,0,23,15c-.21.25-.12.68-.12,1v2.26c0,.31-.11.67.19.89l1.76.93,3.06,1.63,1.23.65h0a.35.35,0,0,0,.18.05.37.37,0,0,0,.38-.36V11.27A.37.37,0,0,0,29.29,10.91Zm-8.69,0H10A1.4,1.4,0,0,0,8.5,12.18v8.89A1.4,1.4,0,0,0,10,22.34H20.6a1.41,1.41,0,0,0,1.51-1.27V12.18A1.41,1.41,0,0,0,20.6,10.91Z"/></g></g></g></g></svg>