<svg xmlns="http://www.w3.org/2000/svg" width="45.1" height="35" viewBox="0 0 45.1 35"><defs><style>.cls-1{fill:none;}.cls-2{fill:#d84012;}.cls-3{fill:#002fa6;}.cls-4{fill:#fff;fill-rule:evenodd;}</style></defs><g id="Layer_2" data-name="Layer 2"><g id="community"><rect class="cls-1" width="45.1" height="35"/><g id="Orange_BG" data-name="Orange BG"><path class="cls-2" d="M32.9,6.58v24A4.43,4.43,0,0,1,29.14,35h0a4.44,4.44,0,0,1-.63,0h-24A4.43,4.43,0,0,1,.05,30.57v-24A4.36,4.36,0,0,1,.63,4.39,4.42,4.42,0,0,1,4.48,2.15h24a4.44,4.44,0,0,1,4.22,3.07A4.35,4.35,0,0,1,32.9,6.58Z"/></g><g id="Blue_BG" data-name="Blue BG"><path class="cls-3" d="M35.05,4.4V28.16a4.39,4.39,0,0,1-3.73,4.34h0c-.2,0-.41,0-.62,0H6.89A4.4,4.4,0,0,1,2.5,28.16V4.4A4.4,4.4,0,0,1,6.89,0H30.66a4.42,4.42,0,0,1,4.39,4.4Z"/></g><path class="cls-4" d="M27.74,20.06l-.21-1a1.49,1.49,0,0,0-.19-.45.79.79,0,0,0-.5-.41l-.38-.14c-.48-.18-.94-.39-1.43-.53a.76.76,0,0,1-.36-.25.68.68,0,0,0-.2-.18.29.29,0,0,1-.16-.32.82.82,0,0,1,.06-.26,2.77,2.77,0,0,0,.22-.63.14.14,0,0,0,.18-.07,2,2,0,0,0,.11-.26c.06-.21.11-.42.16-.63,0,0,0,0,0,0a.14.14,0,0,0-.08-.16l-.09,0,0-.12a2,2,0,0,0-.17-1.35,1.36,1.36,0,0,0-.82-.72l-.33-.08c-.24-.06-.49,0-.72-.12a.54.54,0,0,0-.18,0c-.12,0-.23,0-.35,0h0a3,3,0,0,1,0,1.16c0,.05,0,.11,0,.18l.13.05a.21.21,0,0,1,.13.25s0,.05,0,.07c-.08.32-.16.64-.25,1a2.9,2.9,0,0,1-.16.41.23.23,0,0,1-.28.11c0,.11-.05.21-.08.32a.75.75,0,0,0,.15.09,1.65,1.65,0,0,0,.2.52.39.39,0,0,1,0,.28c0,.12-.05.23-.07.33a2.54,2.54,0,0,0-.23.2.92.92,0,0,1-.14.14,1.13,1.13,0,0,1,.25.24,1,1,0,0,0,.56.38c.74.23,1.45.54,2.18.83l.58.2a1.33,1.33,0,0,1,.78.63,2.23,2.23,0,0,1,.28.7c0,.12,0,.23.08.35h1.15c.16,0,.22-.07.25-.23A1.83,1.83,0,0,0,27.74,20.06Z"/><path class="cls-4" d="M12.94,19.1a5.05,5.05,0,0,1,.74-.27c.68-.2,1.35-.44,2-.7a1.71,1.71,0,0,0,.76-.51,3,3,0,0,1,.36-.31h0a.75.75,0,0,1-.16-.15.72.72,0,0,0-.21-.18.32.32,0,0,1-.16-.33.76.76,0,0,1,.06-.26,3.07,3.07,0,0,0,.23-.64h0a1,1,0,0,1,0-.17.82.82,0,0,1-.26-.16,1.11,1.11,0,0,1-.15-.31,4.07,4.07,0,0,0-.26-.74.84.84,0,0,1-.05-.47c0-.15.15-.19.25-.27a5,5,0,0,1-.2-1.15v-.2l-.33-.09a6.33,6.33,0,0,1-.74-.12.37.37,0,0,0-.18,0c-.12,0-.24.05-.36.05a.39.39,0,0,0-.34.16.34.34,0,0,1-.15.09.55.55,0,0,0-.28.3,1.75,1.75,0,0,0-.11.24c0,.09,0,.18,0,.27a2.51,2.51,0,0,0,0,.55,2.82,2.82,0,0,0,.13.76c-.07.06-.16.08-.17.18a.69.69,0,0,0,0,.32,2.88,2.88,0,0,1,.18.49.58.58,0,0,0,.1.21,1.26,1.26,0,0,0,.17.11,1.65,1.65,0,0,0,.2.52.42.42,0,0,1,0,.29c0,.12-.06.24-.08.34a2.81,2.81,0,0,0-.24.2,1.07,1.07,0,0,1-.5.34c-.44.18-.89.33-1.34.47a2.6,2.6,0,0,0-.49.18,1,1,0,0,0-.56.58c-.11.29-.21.58-.31.88a2.29,2.29,0,0,0-.11.58,1.53,1.53,0,0,0,0,.3.23.23,0,0,0,.22.19h1.21c.08-.24.17-.48.26-.72A1.51,1.51,0,0,1,12.94,19.1Z"/><path class="cls-4" d="M25.77,20.53a2.5,2.5,0,0,0-.28-.7,1.32,1.32,0,0,0-.78-.63c-.2-.06-.39-.13-.59-.21-.72-.28-1.43-.6-2.18-.82a1.15,1.15,0,0,1-.56-.38.86.86,0,0,0-.3-.27.44.44,0,0,1-.24-.49,1.06,1.06,0,0,1,.09-.4,4.2,4.2,0,0,0,.33-1,.24.24,0,0,0,.28-.11,2.37,2.37,0,0,0,.17-.41c.09-.32.16-.65.24-1a.14.14,0,0,0,0-.06.22.22,0,0,0-.13-.26.4.4,0,0,0-.13,0c0-.08,0-.13,0-.19a3,3,0,0,0-.26-2.07,2,2,0,0,0-1.26-1.09l-.49-.14c-.37-.08-.75-.07-1.12-.18a.62.62,0,0,0-.27,0c-.18,0-.35.07-.54.08a.6.6,0,0,0-.51.24.49.49,0,0,1-.23.14.73.73,0,0,0-.4.44c-.05.12-.14.24-.18.36s0,.28,0,.41a3.73,3.73,0,0,0-.05.82,5,5,0,0,0,.19,1.15c-.1.08-.23.12-.24.27a.93.93,0,0,0,0,.47,4.78,4.78,0,0,1,.27.75.85.85,0,0,0,.15.3,1.21,1.21,0,0,0,.25.17,2.92,2.92,0,0,0,.3.79.54.54,0,0,1,.07.43c0,.18-.07.36-.11.51a2.72,2.72,0,0,0-.35.3,1.74,1.74,0,0,1-.77.51c-.66.26-1.32.5-2,.7a6.55,6.55,0,0,0-.74.27,1.51,1.51,0,0,0-.83.87c-.16.44-.32.88-.47,1.33a2.84,2.84,0,0,0-.15.87,1.71,1.71,0,0,0,0,.45.34.34,0,0,0,.34.28h.28l12.89,0h.2c.25,0,.34-.1.38-.35a1.92,1.92,0,0,0,0-.72C26,21.53,25.88,21,25.77,20.53Z"/></g></g></svg>