<svg xmlns="http://www.w3.org/2000/svg" width="45.1" height="35" viewBox="0 0 45.1 35"><defs><style>.cls-1{fill:none;}.cls-2{fill:#d84012;}.cls-3{fill:#002fa6;}.cls-4{fill:#fff;}</style></defs><g id="Layer_2" data-name="Layer 2"><g id="computer"><rect class="cls-1" width="45.1" height="35"/><g id="Orange_BG" data-name="Orange BG"><path class="cls-2" d="M32.9,6.58v24A4.43,4.43,0,0,1,29.14,35h0a4.44,4.44,0,0,1-.63,0h-24A4.43,4.43,0,0,1,.05,30.57v-24A4.36,4.36,0,0,1,.63,4.39,4.42,4.42,0,0,1,4.48,2.15h24a4.44,4.44,0,0,1,4.22,3.07A4.35,4.35,0,0,1,32.9,6.58Z"/></g><g id="Blue_BG" data-name="Blue BG"><path class="cls-3" d="M35.05,4.4V28.16a4.39,4.39,0,0,1-3.73,4.34h0c-.2,0-.41,0-.62,0H6.89A4.4,4.4,0,0,1,2.5,28.16V4.4A4.4,4.4,0,0,1,6.89,0H30.66a4.42,4.42,0,0,1,4.39,4.4Z"/></g><path class="cls-4" d="M21.52,23.4a1.55,1.55,0,0,1-.38-.56,4.33,4.33,0,0,1-.15-1H17.33a3.88,3.88,0,0,1-.16,1,1.41,1.41,0,0,1-.37.56c-.14.13-.4.31-.45.5s1.27.23,1.44.23h2.74c.16,0,1.51.08,1.44-.23S21.66,23.53,21.52,23.4Z"/><path class="cls-4" d="M28.07,9.11h-18a.69.69,0,0,0-.69.7V21.17a.7.7,0,0,0,.69.7h18a.71.71,0,0,0,.7-.7V9.81A.7.7,0,0,0,28.07,9.11Zm-.48,1.21v9.05h-17v-9Z"/></g></g></svg>