<svg xmlns="http://www.w3.org/2000/svg" width="45.1" height="35" viewBox="0 0 45.1 35"><defs><style>.cls-1{fill:none;}.cls-2{fill:#d84012;}.cls-3{fill:#002fa6;}.cls-4{fill:#fff;}</style></defs><g id="Layer_2" data-name="Layer 2"><g id="multiple-documents"><rect class="cls-1" width="45.1" height="35"/><g id="Orange_BG" data-name="Orange BG"><path class="cls-2" d="M32.9,6.58v24A4.43,4.43,0,0,1,29.14,35h0a4.44,4.44,0,0,1-.63,0h-24A4.43,4.43,0,0,1,.05,30.57v-24A4.36,4.36,0,0,1,.63,4.39,4.42,4.42,0,0,1,4.48,2.15h24a4.44,4.44,0,0,1,4.22,3.07A4.35,4.35,0,0,1,32.9,6.58Z"/></g><g id="Blue_BG" data-name="Blue BG"><path class="cls-3" d="M35.05,4.4V28.16a4.39,4.39,0,0,1-3.73,4.34h0c-.2,0-.41,0-.62,0H6.89A4.4,4.4,0,0,1,2.5,28.16V4.4A4.4,4.4,0,0,1,6.89,0H30.66a4.42,4.42,0,0,1,4.39,4.4Z"/></g><path class="cls-4" d="M25.35,15.13c0,2.41,0,4.81,0,7.21,0,1.43-.54,2-2,2H11.45c-1.28,0-1.87-.58-1.87-1.84,0-3.83,0-7.67,0-11.5a1.25,1.25,0,0,1,.3-.77c1.26-1.3,2.55-2.59,3.86-3.85A1.33,1.33,0,0,1,14.6,6q4.47,0,8.92,0a1.61,1.61,0,0,1,1.84,1.82c0,2.44,0,4.88,0,7.32ZM11,11.43V12c0,3.42,0,6.83,0,10.25,0,.54.16.67.68.67,3.91,0,7.83,0,11.74,0,.51,0,.65-.15.65-.65Q24,15.14,24,8c0-.53-.18-.64-.67-.64-2.58,0-5.15,0-7.72,0-.18,0-.35,0-.52,0a.45.45,0,0,0,0,.13c0,.72,0,1.44,0,2.15a1.56,1.56,0,0,1-1.8,1.77Z"/><path class="cls-4" d="M12.51,25.2l1.43.23a3.91,3.91,0,0,0,.48.05c4,0,7.9,0,11.84,0,.5,0,.63-.15.62-.63,0-4.79,0-9.58,0-14.37a14.09,14.09,0,0,0-.21-1.43,2.68,2.68,0,0,1,0-.49,1.39,1.39,0,0,1,1.46,1,3.62,3.62,0,0,1,.09.87c0,4.79,0,9.58,0,14.37,0,1.45-.54,2-2,2h-12A1.54,1.54,0,0,1,12.51,25.2Z"/><path class="cls-4" d="M12.35,15.05c-.13-1.34-.13-1.34,1.11-1.34,2.81,0,5.62,0,8.43,0,.6,0,.62.27.63.73s-.09.67-.63.67c-3,0-6,0-9,0Z"/><path class="cls-4" d="M12.31,16.34l.61,0h9c.4,0,.65,0,.63.55,0,.8,0,.82-.64.82h-9c-.43,0-.61-.13-.56-.57A6.37,6.37,0,0,0,12.31,16.34Z"/><path class="cls-4" d="M22.61,18.9v1.29H12.48V18.9Z"/><path class="cls-4" d="M22.39,11.15c.07.09.1.1.1.11.17,1.26.17,1.26-1.07,1.26s-2.27,0-3.4,0c-.39,0-.51-.13-.51-.51,0-.87,0-.87.84-.87h4Z"/></g></g></svg>