<svg xmlns="http://www.w3.org/2000/svg" width="45.1" height="35" viewBox="0 0 45.1 35"><defs><style>.cls-1{fill:none;}.cls-2{fill:#d84012;}.cls-3{fill:#002fa6;}.cls-4{fill:#fff;}</style></defs><g id="Layer_2" data-name="Layer 2"><g id="collaboration"><rect class="cls-1" width="45.1" height="35"/><g id="Orange_BG" data-name="Orange BG"><path class="cls-2" d="M32.9,6.58v24A4.43,4.43,0,0,1,29.14,35h0a4.44,4.44,0,0,1-.63,0h-24A4.43,4.43,0,0,1,.05,30.57v-24A4.36,4.36,0,0,1,.63,4.39,4.42,4.42,0,0,1,4.48,2.15h24a4.44,4.44,0,0,1,4.22,3.07A4.35,4.35,0,0,1,32.9,6.58Z"/></g><g id="Blue_BG" data-name="Blue BG"><path class="cls-3" d="M35.05,4.4V28.16a4.39,4.39,0,0,1-3.73,4.34h0c-.2,0-.41,0-.62,0H6.89A4.4,4.4,0,0,1,2.5,28.16V4.4A4.4,4.4,0,0,1,6.89,0H30.66a4.42,4.42,0,0,1,4.39,4.4Z"/></g><path class="cls-4" d="M27.1,22.38a19,19,0,0,1-2.23-.65,16,16,0,0,1-1.66-1,2.13,2.13,0,0,0-.81-.29c-.28,0-.42-.07-.45-.38a5.54,5.54,0,0,0-4.53-5.19,7.74,7.74,0,0,0-3.58-.15c-.44.09-.59,0-.56-.47a4.84,4.84,0,0,1,1.18-2.78,7.82,7.82,0,0,1,5-2.63,9,9,0,0,1,7,1.56,5,5,0,0,1,2.3,4.69,5.28,5.28,0,0,1-2.33,3.78c-.62.47-.65.47-.32,1.17s.6,1.11.9,1.67c.09.16.16.31.24.47Z"/><path class="cls-4" d="M10.58,25.66c.11-.22.17-.36.24-.49L11.46,24a.59.59,0,0,0-.23-.88,4,4,0,0,1-1.76-2.64A3.68,3.68,0,0,1,10.77,17a7.18,7.18,0,0,1,9-.07,3.76,3.76,0,0,1-.19,6,6.69,6.69,0,0,1-4.82,1.35,1.9,1.9,0,0,0-1.43.43A4.36,4.36,0,0,1,10.58,25.66Zm3.3-4.85c0-.45-.23-.65-.71-.63a.6.6,0,0,0-.62.68.64.64,0,0,0,.68.66A.62.62,0,0,0,13.88,20.81Zm2.36,0c0-.46-.18-.64-.64-.64a.58.58,0,0,0-.66.62.63.63,0,0,0,.65.72C16,21.53,16.24,21.28,16.24,20.82Zm2.38.05c0-.48-.22-.71-.66-.7s-.63.22-.63.66.22.71.66.69S18.65,21.29,18.62,20.87Z"/></g></g></svg>