<svg xmlns="http://www.w3.org/2000/svg" width="45.1" height="35" viewBox="0 0 45.1 35"><defs><style>.cls-1{fill:#d84012;}.cls-2{fill:#002fa6;}.cls-3{fill:none;}.cls-4{fill:#fff;}</style></defs><g id="Layer_2" data-name="Layer 2"><g id="document"><g id="Orange_BG" data-name="Orange BG"><path class="cls-1" d="M32.9,6.58v24A4.43,4.43,0,0,1,29.14,35h0a4.44,4.44,0,0,1-.63,0h-24A4.43,4.43,0,0,1,.05,30.57v-24A4.36,4.36,0,0,1,.63,4.39,4.42,4.42,0,0,1,4.48,2.15h24a4.44,4.44,0,0,1,4.22,3.07A4.35,4.35,0,0,1,32.9,6.58Z"/></g><g id="Blue_BG" data-name="Blue BG"><path class="cls-2" d="M35.05,4.4V28.16a4.39,4.39,0,0,1-3.73,4.34h0c-.2,0-.41,0-.62,0H6.89A4.4,4.4,0,0,1,2.5,28.16V4.4A4.4,4.4,0,0,1,6.89,0H30.66a4.42,4.42,0,0,1,4.39,4.4Z"/></g><rect class="cls-3" width="45.1" height="35"/><path class="cls-4" d="M27.88,12.53V25.74A1.85,1.85,0,0,1,26,27.5H12.2a1.86,1.86,0,0,1-1.93-1.76V7.51A1.86,1.86,0,0,1,12.2,5.74h8.34v6.79Z"/><polygon class="cls-4" points="27.88 11.68 21.38 11.68 21.38 5.74 27.88 11.68"/></g></g></svg>