<svg xmlns="http://www.w3.org/2000/svg" width="45.1" height="35" viewBox="0 0 45.1 35"><defs><style>.cls-1{fill:none;}.cls-2{fill:#d84012;}.cls-3{fill:#002fa6;}.cls-4{fill:#fff;}</style></defs><g id="Layer_2" data-name="Layer 2"><g id="email"><rect class="cls-1" width="45.1" height="35"/><g id="Orange_BG" data-name="Orange BG"><path class="cls-2" d="M32.9,6.58v24A4.43,4.43,0,0,1,29.14,35h0a4.44,4.44,0,0,1-.63,0h-24A4.43,4.43,0,0,1,.05,30.57v-24A4.36,4.36,0,0,1,.63,4.39,4.42,4.42,0,0,1,4.48,2.15h24a4.44,4.44,0,0,1,4.22,3.07A4.35,4.35,0,0,1,32.9,6.58Z"/></g><g id="Blue_BG" data-name="Blue BG"><path class="cls-3" d="M35.05,4.4V28.16a4.39,4.39,0,0,1-3.73,4.34h0c-.2,0-.41,0-.62,0H6.89A4.4,4.4,0,0,1,2.5,28.16V4.4A4.4,4.4,0,0,1,6.89,0H30.66a4.42,4.42,0,0,1,4.39,4.4Z"/></g><g id="gomlk9"><path class="cls-4" d="M13.06,10.29c4,.12,8,0,12.07.05h2.19a1.32,1.32,0,0,1,.72.28,1.47,1.47,0,0,1,.43.47.69.69,0,0,1,.06.68.84.84,0,0,1-.22.24l-.71.54c-.23.17-.47.32-.71.49s-.27.22-.41.33-.39.31-.6.46l-.41.3-.36.28-.4.26-.37.26-.38.31-.53.39-.6.47c-.13.1-.27.16-.4.25l-.43.35-.4.28-.18.14-.55.4-.63.5a4.15,4.15,0,0,1-.34.24c-.14.1-.28.22-.43.31a3.19,3.19,0,0,0-.33.11.47.47,0,0,1-.41.07,2.12,2.12,0,0,1-.56-.16,6.38,6.38,0,0,1-.71-.43,6.4,6.4,0,0,1-.49-.42l-.29-.2-.43-.3c-.2-.15-.38-.31-.58-.45s-.29-.19-.42-.29l-.53-.42s-.08,0-.12-.06l-.74-.57-.31-.21-.3-.23-.37-.29-.43-.33-.11-.07-.76-.56-.7-.49-.56-.42L10,12.6c-.22-.16-.42-.35-.65-.5A1.09,1.09,0,0,1,9,11.71a.54.54,0,0,1,.09-.58c.08-.09.15-.2.23-.3a1.31,1.31,0,0,1,.52-.34,2.17,2.17,0,0,1,.87-.16C11.16,10.31,12.75,10.28,13.06,10.29Z"/><path class="cls-4" d="M18.65,22.26H11.32c-.31,0-.62,0-.93,0a1.59,1.59,0,0,1-.62-.12,1.88,1.88,0,0,1-.48-.42A1.65,1.65,0,0,1,9,21.26a.57.57,0,0,1,.11-.58.74.74,0,0,1,.19-.16l.84-.59c.27-.19.54-.38.8-.58s.33-.28.5-.42.24-.17.36-.26l.5-.38.59-.43c.25-.18.49-.37.75-.55s.46-.28.68-.44.17-.13.27-.07a1,1,0,0,1,.24.17c.21.15.4.32.6.47s.4.26.59.4l.41.35.53.38a5.71,5.71,0,0,0,.48.38,3.19,3.19,0,0,0,.58.3,1.83,1.83,0,0,0,.77.16,2.16,2.16,0,0,0,.75-.17,3.26,3.26,0,0,0,.53-.26c.28-.2.53-.43.81-.64a4,4,0,0,1,.33-.24l.6-.44.43-.31.41-.34a2.06,2.06,0,0,1,.37-.23.27.27,0,0,1,.2,0c.19.12.37.25.55.38l.38.3.8.58.51.37c.14.11.27.24.42.34s.24.15.35.24.3.24.44.35l.38.26.29.2.47.36.45.31a.67.67,0,0,1,.27.94,1.41,1.41,0,0,1-.65.65,1.65,1.65,0,0,1-.65.14c-.51,0-1,.05-1.53.05Z"/><path class="cls-4" d="M8.93,12.77a.39.39,0,0,1,.38.11s.07,0,.1,0l.48.35c.15.11.31.19.46.3l.42.32.78.58.58.43c.25.19.49.37.72.56l.89.76c.06.06.06.12,0,.18s-.32.29-.49.42-.25.17-.37.27l-.41.32,0,0-.64.44c-.25.18-.49.37-.74.54l-.69.49-.71.56a3,3,0,0,1-.49.29.14.14,0,0,1-.21-.09.57.57,0,0,1,0-.13V12.77Z"/><path class="cls-4" d="M23.71,16.32l.74-.63.37-.28.54-.43.32-.24c.21-.15.43-.29.63-.46a9.19,9.19,0,0,0,.8-.63,2.76,2.76,0,0,1,.49-.32l.53-.38.21-.14a.24.24,0,0,1,.16,0s0,.08.05.13c.12,1.18,0,2.36.06,3.54s0,2.12,0,3.18a.48.48,0,0,1,0,.12s0,.11-.06.12a.18.18,0,0,1-.13,0c-.21-.14-.41-.28-.61-.44l-.6-.46-.44-.3c-.12-.08-.23-.18-.34-.27L26,18.09l-.4-.3-.42-.32-.42-.31-.3-.22-.34-.27-.15-.1Z"/></g></g></g></svg>