<svg xmlns="http://www.w3.org/2000/svg" width="45.1" height="35" viewBox="0 0 45.1 35"><defs><style>.cls-1{fill:none;}.cls-2{fill:#d84012;}.cls-3{fill:#002fa6;}.cls-4{fill:#fff;}</style></defs><g id="Layer_2" data-name="Layer 2"><g id="finish-line"><rect class="cls-1" width="45.1" height="35"/><g id="Orange_BG" data-name="Orange BG"><path class="cls-2" d="M32.9,6.58v24A4.43,4.43,0,0,1,29.14,35h0a4.44,4.44,0,0,1-.63,0h-24A4.43,4.43,0,0,1,.05,30.57v-24A4.36,4.36,0,0,1,.63,4.39,4.42,4.42,0,0,1,4.48,2.15h24a4.44,4.44,0,0,1,4.22,3.07A4.35,4.35,0,0,1,32.9,6.58Z"/></g><g id="Blue_BG" data-name="Blue BG"><path class="cls-3" d="M35.05,4.4V28.16a4.39,4.39,0,0,1-3.73,4.34h0c-.2,0-.41,0-.62,0H6.89A4.4,4.4,0,0,1,2.5,28.16V4.4A4.4,4.4,0,0,1,6.89,0H30.66a4.42,4.42,0,0,1,4.39,4.4Z"/></g><path class="cls-4" d="M26.4,7.51c.51,1.92,1,3.72,1.47,5.52.58,2.18,1.14,4.37,1.75,6.55.14.49,0,.7-.41.93a7,7,0,0,1-5.1.51c-1.86-.42-3.69-1-5.54-1.39a6.15,6.15,0,0,0-4,.26.54.54,0,0,0-.36.77c.57,2.08,1.12,4.17,1.68,6.26,0,.13.07.26.1.4a.68.68,0,0,1-.5,1c-.48.13-.79-.13-.92-.6s-.23-.87-.35-1.31L9.46,8.61a3.14,3.14,0,0,1-.12-.51.74.74,0,0,1,1-.77c.17.06.4.17.52.11a7.82,7.82,0,0,1,5.59-.23c1.21.29,2.39.65,3.59,1C22.2,8.74,24.35,9.05,26.4,7.51Zm-2.31,7.55L20,14.2l.81,2.9a19.14,19.14,0,0,0-4.19-1c.2.77.4,1.45.54,2.14.09.38.3.48.64.54,1,.19,2,.42,3.06.63l.46.09c-.07-.28-.13-.49-.18-.7-.12-.56-.23-1.13-.34-1.7.24,0,.49.05.72.11l3.32.83c-.29-1.11-.55-2.05-.8-3a5.7,5.7,0,0,0,3-.6c.15-.08.35-.3.33-.4-.21-.89-.46-1.76-.66-2.5l-3.26.75c0,.13.09.34.14.55Zm-8.23-2,4,.79c-.25-1-.51-1.91-.76-2.85l4.2,1.12c-.23-.88-.42-1.53-.57-2.2a.68.68,0,0,0-.65-.6C21,9.13,20,8.88,19,8.67c-.12,0-.24,0-.37-.06L19.11,11c-.23,0-.46-.06-.68-.12L15,10l.87,3a5.17,5.17,0,0,0-3,.57c-.14.09-.32.34-.29.48.19.85.44,1.69.63,2.41l3.26-.74c-.07-.28-.19-.66-.27-1C16.07,14.18,16,13.61,15.86,13.05ZM25,18.22c.16.61.33,1.31.54,2a.54.54,0,0,0,.36.3,5,5,0,0,0,3-.71l-.63-2.34ZM14.87,9.81c-.16-.62-.31-1.29-.51-1.94a.61.61,0,0,0-.43-.29,4.76,4.76,0,0,0-2.62.5c-.12.06-.27.27-.25.37.18.76.39,1.5.57,2.15Z"/></g></g></svg>