<svg xmlns="http://www.w3.org/2000/svg" width="45.1" height="35" viewBox="0 0 45.1 35"><defs><style>.cls-1{fill:none;}.cls-2{fill:#d84012;}.cls-3{fill:#002fa6;}.cls-4{fill:#fff;}</style></defs><g id="Layer_2" data-name="Layer 2"><g id="link"><rect class="cls-1" width="45.1" height="35"/><g id="Orange_BG" data-name="Orange BG"><path class="cls-2" d="M32.9,6.58v24A4.43,4.43,0,0,1,29.14,35h0a4.44,4.44,0,0,1-.63,0h-24A4.43,4.43,0,0,1,.05,30.57v-24A4.36,4.36,0,0,1,.63,4.39,4.42,4.42,0,0,1,4.48,2.15h24a4.44,4.44,0,0,1,4.22,3.07A4.35,4.35,0,0,1,32.9,6.58Z"/></g><g id="Blue_BG" data-name="Blue BG"><path class="cls-3" d="M35.05,4.4V28.16a4.39,4.39,0,0,1-3.73,4.34h0c-.2,0-.41,0-.62,0H6.89A4.4,4.4,0,0,1,2.5,28.16V4.4A4.4,4.4,0,0,1,6.89,0H30.66a4.42,4.42,0,0,1,4.39,4.4Z"/></g><path id="LINK-2" data-name="LINK" class="cls-4" d="M27,13.22l-2.6,2.61a3.66,3.66,0,0,1-3.57.94L23,14.61l.1-.08,2.6-2.61a1.84,1.84,0,0,0-2.6-2.6l-2.6,2.6h0l-2.25,2.25a3.71,3.71,0,0,1,.95-3.55L21.83,8A3.68,3.68,0,0,1,27,13.22ZM16.34,20.06h0A.93.93,0,1,1,15,18.72l6.18-6.17a.9.9,0,0,1,.68-.3.93.93,0,0,1,.93.93.9.9,0,0,1-.27.65h0Zm-1.92-2-2.6,2.6a1.84,1.84,0,0,0,2.6,2.61L17,20.63l0-.06,2.2-2.19a3.67,3.67,0,0,1-.94,3.55l-2.6,2.61a3.68,3.68,0,0,1-5.2-5.21l2.6-2.6a3.65,3.65,0,0,1,3.55-1L14.44,18Z"/></g></g></svg>