<svg xmlns="http://www.w3.org/2000/svg" width="45.1" height="35" viewBox="0 0 45.1 35"><defs><style>.cls-1{fill:none;}.cls-2{fill:#d84012;}.cls-3{fill:#002fa6;}.cls-4{fill:#fff;}</style></defs><g id="Layer_2" data-name="Layer 2"><g id="policies"><rect class="cls-1" width="45.1" height="35"/><g id="Orange_BG" data-name="Orange BG"><path class="cls-2" d="M32.9,6.58v24A4.43,4.43,0,0,1,29.14,35h0a4.44,4.44,0,0,1-.63,0h-24A4.43,4.43,0,0,1,.05,30.57v-24A4.36,4.36,0,0,1,.63,4.39,4.42,4.42,0,0,1,4.48,2.15h24a4.44,4.44,0,0,1,4.22,3.07A4.35,4.35,0,0,1,32.9,6.58Z"/></g><g id="Blue_BG" data-name="Blue BG"><path class="cls-3" d="M35.05,4.4V28.16a4.39,4.39,0,0,1-3.73,4.34h0c-.2,0-.41,0-.62,0H6.89A4.4,4.4,0,0,1,2.5,28.16V4.4A4.4,4.4,0,0,1,6.89,0H30.66a4.42,4.42,0,0,1,4.39,4.4Z"/></g><path class="cls-4" d="M25.47,19.29c-.31-.24-.7-.55-1.08-.83s-1.22-.9-2.15-1.53l-.35-.23-.19-.12c-1.16-.73-2.59-1.46-2.94-1.64l-.86.27A4,4,0,0,1,15.23,17H15a.81.81,0,0,1-.7-.28,1.18,1.18,0,0,1,0-1s0,0,0,0a18.17,18.17,0,0,1,1.31-2l-.29,0a4.94,4.94,0,0,1-1.5-.35l-.6-.36-2.94,5.22.25.28.7.87h0a1.07,1.07,0,0,1,.85-.42,1.29,1.29,0,0,1,.82.31,1.39,1.39,0,0,1,.46.69l.28-.38a1,1,0,0,1,.85-.42,1.28,1.28,0,0,1,.82.3,1.36,1.36,0,0,1,.48,1.32h.05a1.29,1.29,0,0,1,.82.31,1.33,1.33,0,0,1,.48,1.3h.1a1.34,1.34,0,0,1,1.12,2l-.19.25a10,10,0,0,0,1.36.39h0a2.39,2.39,0,0,0,1.39-.05,2,2,0,0,0,.66-.63l-2.24-1.07a.26.26,0,0,1-.11-.32.24.24,0,0,1,.32-.11l2.37,1.15a.06.06,0,0,1,.06,0,1.53,1.53,0,0,0,.87-.1,1.13,1.13,0,0,0,.37-.85l-2.88-1.67a.24.24,0,0,1-.09-.33.23.23,0,0,1,.32-.08l3,1.71a1.56,1.56,0,0,0,.9-.17,1,1,0,0,0,.3-1l-3.41-2.05a.23.23,0,1,1,.24-.4l3.6,2.15a.91.91,0,0,0,1.09-.35A.81.81,0,0,0,26,19.75Z"/><path class="cls-4" d="M15.1,20.91a.87.87,0,0,0-.74-1.26.54.54,0,0,0-.47.23l-1.52,2.06a.87.87,0,0,0,.74,1.27.57.57,0,0,0,.47-.23h0Z"/><path class="cls-4" d="M16.23,21.46a.85.85,0,0,0-.52-.19.58.58,0,0,0-.39.14s-1.25,1.7-1.25,1.7l0,0a.47.47,0,0,0,0,.1.85.85,0,0,0,.29.92.83.83,0,0,0,.52.2.57.57,0,0,0,.48-.23l1.17-1.61A.81.81,0,0,0,16.23,21.46Z"/><path class="cls-4" d="M17.63,23.06a.85.85,0,0,0-.52-.19.56.56,0,0,0-.47.23s-.81,1.1-.83,1.14a.88.88,0,0,0,.81,1.14.57.57,0,0,0,.47-.23l.76-1A.82.82,0,0,0,17.63,23.06Z"/><path class="cls-4" d="M12.71,20.68a.82.82,0,0,0-.24-1,.81.81,0,0,0-.52-.2.6.6,0,0,0-.47.23l-.49.66a.81.81,0,0,0,.22,1.06.83.83,0,0,0,.52.2.58.58,0,0,0,.39-.14S12.7,20.69,12.71,20.68Z"/><path class="cls-4" d="M23.88,13a8.52,8.52,0,0,1-1.09-.21,10.33,10.33,0,0,0-2.32-.34h-.06c-1.93,0-3.5.27-3.73.6-.06.07-.12.16-.19.26l-.16.21-.13.19a20.92,20.92,0,0,0-1.39,2.09c-.11.4-.07.54,0,.59a.47.47,0,0,0,.32.09l.2,0a3.56,3.56,0,0,0,2.35-1.65.26.26,0,0,1,.13-.1l.47-.15.56-.18h.08a.19.19,0,0,1,.1,0s1.69.84,3,1.68l.29.18.31.2c.91.62,1.6,1.12,2.12,1.5.75.56,1.11.86,1.13.88h0l.48.4h0a3,3,0,0,0,.8-.54c.15-.13.25-.24.36-.35a3.91,3.91,0,0,1,.41-.39h0l-2.9-5.15A2.94,2.94,0,0,1,23.88,13Z"/><path class="cls-4" d="M13.07,12a.17.17,0,0,0-.05-.22l-1.65-1-.07,0a.13.13,0,0,0-.12.08l-3.66,6.5a.17.17,0,0,0,.05.23l1.64,1a.16.16,0,0,0,.2-.05Z"/><path class="cls-4" d="M30.76,17.21l-3.67-6.5a.13.13,0,0,0-.12-.08l-.07,0-1.64,1a.17.17,0,0,0-.06.22l3.67,6.51a.14.14,0,0,0,.19.05l1.64-1A.18.18,0,0,0,30.76,17.21Z"/></g></g></svg>