<svg xmlns="http://www.w3.org/2000/svg" width="45.1" height="35" viewBox="0 0 45.1 35"><defs><style>.cls-1{fill:none;}.cls-2{fill:#d84012;}.cls-3{fill:#002fa6;}.cls-4{fill:#fff;fill-rule:evenodd;}</style></defs><g id="Layer_2" data-name="Layer 2"><g id="profile"><rect class="cls-1" width="45.1" height="35"/><g id="Orange_BG" data-name="Orange BG"><path class="cls-2" d="M32.9,6.58v24A4.43,4.43,0,0,1,29.14,35h0a4.44,4.44,0,0,1-.63,0h-24A4.43,4.43,0,0,1,.05,30.57v-24A4.36,4.36,0,0,1,.63,4.39,4.42,4.42,0,0,1,4.48,2.15h24a4.44,4.44,0,0,1,4.22,3.07A4.35,4.35,0,0,1,32.9,6.58Z"/></g><g id="Blue_BG" data-name="Blue BG"><path class="cls-3" d="M35.05,4.4V28.16a4.39,4.39,0,0,1-3.73,4.34h0c-.2,0-.41,0-.62,0H6.89A4.4,4.4,0,0,1,2.5,28.16V4.4A4.4,4.4,0,0,1,6.89,0H30.66a4.42,4.42,0,0,1,4.39,4.4Z"/></g><path id="USER" class="cls-4" d="M18.89,27.25A10.71,10.71,0,1,1,29.6,16.54,10.72,10.72,0,0,1,18.89,27.25Zm0-19.41a8.69,8.69,0,0,0-6.44,14.53c1.26-.61.8-.1,2.45-.78A17.76,17.76,0,0,0,17,20.65l0-1.59a3,3,0,0,1-.83-2c-.39.11-.52-.46-.55-.82s-.23-1.46.26-1.36a10.15,10.15,0,0,1-.14-1.75,3.18,3.18,0,0,1,3.17-2.62c2.17.09,3,1.38,3.15,2.62a10.15,10.15,0,0,1-.14,1.75c.48-.1.27,1,.25,1.35s-.16.94-.55.83a3,3,0,0,1-.83,2v1.59s.4.22,2.09.92,1.19.2,2.45.81A8.69,8.69,0,0,0,18.89,7.84Z"/></g></g></svg>