<svg xmlns="http://www.w3.org/2000/svg" width="45.1" height="35" viewBox="0 0 45.1 35"><defs><style>.cls-1{fill:#d84012;}.cls-2{fill:none;}.cls-3{fill:#002fa6;}.cls-4{fill:#fff;}</style></defs><g id="Layer_2" data-name="Layer 2"><g id="looking-ahead"><g id="Orange_BG" data-name="Orange BG"><path class="cls-1" d="M32.9,6.58v24A4.43,4.43,0,0,1,29.14,35h0a4.44,4.44,0,0,1-.63,0h-24A4.43,4.43,0,0,1,.05,30.57v-24A4.36,4.36,0,0,1,.63,4.39,4.42,4.42,0,0,1,4.48,2.15h24a4.44,4.44,0,0,1,4.22,3.07A4.35,4.35,0,0,1,32.9,6.58Z"/></g><rect class="cls-2" width="45.1" height="35"/><g id="Blue_BG" data-name="Blue BG"><path class="cls-3" d="M35.05,4.4V28.16a4.39,4.39,0,0,1-3.73,4.34h0c-.2,0-.41,0-.62,0H6.89A4.4,4.4,0,0,1,2.5,28.16V4.4A4.4,4.4,0,0,1,6.89,0H30.66a4.42,4.42,0,0,1,4.39,4.4Z"/></g><path class="cls-4" d="M9.68,20.15c.35-1.37.68-2.71,1-4.06s.65-2.58,1-3.87c.17-.68.34-.82,1-.82h5.05c.34,0,.6,0,.67.47,0,.12.33.27.51.27s.41-.17.43-.3c.05-.34.23-.43.52-.43h5.38a.76.76,0,0,1,.81.61c.65,2.64,1.31,5.29,2,7.93a1,1,0,0,1,0,.26c-.2,0-.38,0-.56,0l-6.15,0c-.8,0-.86-.08-.86-.89V17.73H17.31c0,.63,0,1.28,0,1.93,0,.4-.12.62-.56.62l-6.81-.05A1.43,1.43,0,0,1,9.68,20.15Z"/><path class="cls-4" d="M13.42,21.27c1.08,0,2.16,0,3.24,0,.47,0,.66.17.65.64,0,.64,0,1.28,0,1.92s-.2.8-.79.8c-2.06,0-4.13,0-6.19,0-.5,0-.75-.2-.75-.71s0-1.32,0-2c0-.48.14-.69.66-.67C11.27,21.29,12.34,21.27,13.42,21.27Z"/><path class="cls-4" d="M24.34,21.27c1.08,0,2.16,0,3.24,0,.51,0,.68.18.66.68,0,.66,0,1.32,0,2a.62.62,0,0,1-.71.7H21.19A.61.61,0,0,1,20.5,24c0-.73,0-1.46,0-2.2,0-.38.21-.49.56-.49,1.1,0,2.2,0,3.3,0Z"/><path class="cls-4" d="M22.73,8.4H25c.47,0,.7.17.73.67.07,1.51,0,1.57-1.49,1.57H20.65c-.68,0-.88-.2-.93-.87q0-.3,0-.6c0-.62.19-.76.81-.77Z"/><path class="cls-4" d="M15.11,8.4h2.25A.59.59,0,0,1,18,9c0,.07,0,.14,0,.21.09,1.27-.07,1.43-1.33,1.43H13c-.68,0-.83-.16-.84-.84,0-1.4,0-1.4,1.36-1.4Z"/></g></g></svg>