<svg xmlns="http://www.w3.org/2000/svg" width="45.1" height="35" viewBox="0 0 45.1 35"><defs><style>.cls-1{fill:#d84012;}.cls-2{fill:none;}.cls-3{fill:#002fa6;}.cls-4{fill:#fff;}</style></defs><g id="Layer_2" data-name="Layer 2"><g id="reading"><g id="Orange_BG" data-name="Orange BG"><path class="cls-1" d="M32.9,6.58v24A4.43,4.43,0,0,1,29.14,35h0a4.44,4.44,0,0,1-.63,0h-24A4.43,4.43,0,0,1,.05,30.57v-24A4.36,4.36,0,0,1,.63,4.39,4.42,4.42,0,0,1,4.48,2.15h24a4.44,4.44,0,0,1,4.22,3.07A4.35,4.35,0,0,1,32.9,6.58Z"/></g><rect class="cls-2" width="45.1" height="35"/><g id="Blue_BG" data-name="Blue BG"><path class="cls-3" d="M35.05,4.4V28.16a4.39,4.39,0,0,1-3.73,4.34h0c-.2,0-.41,0-.62,0H6.89A4.4,4.4,0,0,1,2.5,28.16V4.4A4.4,4.4,0,0,1,6.89,0H30.66a4.42,4.42,0,0,1,4.39,4.4Z"/></g><path id="BOOK_2" data-name="BOOK 2" class="cls-4" d="M27.79,22.2l-8.66,3.58a.86.86,0,0,1-.36.07.84.84,0,0,1-.35-.07L9.76,22.2a.91.91,0,0,1-.56-.84V7.6a.9.9,0,0,1,.9-.9,1,1,0,0,1,.34.07h0l8.32,3.45L27.1,6.77h0a1,1,0,0,1,.34-.07.9.9,0,0,1,.9.9V21.36A.91.91,0,0,1,27.79,22.2ZM17.88,11.79,11,8.94V20.76l6.89,2.85Zm8.68-2.85-6.89,2.85V23.61l6.89-2.85ZM21.1,13.07l3.29-1.5h0a.91.91,0,0,1,.37-.08.89.89,0,0,1,.37,1.71h0l-3.29,1.5h0a.91.91,0,0,1-.37.08.89.89,0,0,1-.37-1.71Zm0,3.29h0l3.29-1.5h0a.91.91,0,0,1,.37-.08.9.9,0,0,1,.9.9.92.92,0,0,1-.53.82L21.84,18h0a.91.91,0,0,1-.37.08.89.89,0,0,1-.37-1.71Zm0,3.29h0l3.29-1.5h0a.91.91,0,0,1,.37-.08.9.9,0,0,1,.9.9.91.91,0,0,1-.53.82h0l-3.29,1.49h0a.77.77,0,0,1-.37.08.89.89,0,0,1-.37-1.71Zm-8.31-8.16a.91.91,0,0,1,.37.08h0l3.29,1.5h0a.89.89,0,0,1-.37,1.71.91.91,0,0,1-.37-.08h0l-3.29-1.5h0a.89.89,0,0,1,.37-1.71Zm0,3.29a.91.91,0,0,1,.37.08h0l3.29,1.5h0a.89.89,0,0,1-.37,1.71.91.91,0,0,1-.37-.08h0L12.42,16.5h0a.92.92,0,0,1-.53-.82A.9.9,0,0,1,12.79,14.78Zm0,3.29a.91.91,0,0,1,.37.08h0l3.29,1.5h0a.89.89,0,0,1-.37,1.71.77.77,0,0,1-.37-.08h0l-3.29-1.49h0a.91.91,0,0,1-.53-.82A.9.9,0,0,1,12.79,18.07Z"/></g></g></svg>