<svg xmlns="http://www.w3.org/2000/svg" width="45.1" height="35" viewBox="0 0 45.1 35"><defs><style>.cls-1{fill:none;}.cls-2{fill:#d84012;}.cls-3{fill:#002fa6;}.cls-4{fill:#fff;}</style></defs><g id="Layer_2" data-name="Layer 2"><g id="recording"><rect class="cls-1" width="45.1" height="35"/><g id="Orange_BG" data-name="Orange BG"><path class="cls-2" d="M32.9,6.58v24A4.43,4.43,0,0,1,29.14,35h0a4.44,4.44,0,0,1-.63,0h-24A4.43,4.43,0,0,1,.05,30.57v-24A4.36,4.36,0,0,1,.63,4.39,4.42,4.42,0,0,1,4.48,2.15h24a4.44,4.44,0,0,1,4.22,3.07A4.35,4.35,0,0,1,32.9,6.58Z"/></g><g id="Blue_BG" data-name="Blue BG"><path class="cls-3" d="M35.05,4.4V28.16a4.39,4.39,0,0,1-3.73,4.34h0c-.2,0-.41,0-.62,0H6.89A4.4,4.4,0,0,1,2.5,28.16V4.4A4.4,4.4,0,0,1,6.89,0H30.66a4.42,4.42,0,0,1,4.39,4.4Z"/></g><path class="cls-4" d="M19.08,7.17a9.45,9.45,0,1,1-9.45,9.45,9.45,9.45,0,0,1,9.45-9.45m0,14a4.55,4.55,0,1,0-4.55-4.55,4.55,4.55,0,0,0,4.55,4.55m0-15.34a10.8,10.8,0,1,0,10.8,10.79A10.81,10.81,0,0,0,19.08,5.83"/></g></g></svg>