<svg xmlns="http://www.w3.org/2000/svg" width="45.1" height="35" viewBox="0 0 45.1 35"><defs><style>.cls-1{fill:none;}.cls-2{fill:#d84012;}.cls-3{fill:#002fa6;}.cls-4{fill:#fff;}</style></defs><g id="Layer_2" data-name="Layer 2"><g id="assignments-tasks"><rect class="cls-1" width="45.1" height="35"/><g id="Orange_BG" data-name="Orange BG"><path class="cls-2" d="M32.9,6.58v24A4.43,4.43,0,0,1,29.14,35h0a4.44,4.44,0,0,1-.63,0h-24A4.43,4.43,0,0,1,.05,30.57v-24A4.36,4.36,0,0,1,.63,4.39,4.42,4.42,0,0,1,4.48,2.15h24a4.44,4.44,0,0,1,4.22,3.07A4.35,4.35,0,0,1,32.9,6.58Z"/></g><g id="Blue_BG" data-name="Blue BG"><path class="cls-3" d="M35.05,4.4V28.16a4.39,4.39,0,0,1-3.73,4.34h0c-.2,0-.41,0-.62,0H6.89A4.4,4.4,0,0,1,2.5,28.16V4.4A4.4,4.4,0,0,1,6.89,0H30.66a4.42,4.42,0,0,1,4.39,4.4Z"/></g><path class="cls-4" d="M23.66,9c-.63.6-1.16,1.13-1.73,1.62a1.1,1.1,0,0,1-.66.15c-2.48,0-5,0-7.44,0-1.05,0-1.27.23-1.27,1.25V22c0,.92.26,1.19,1.17,1.19H23.87c.84,0,1.1-.27,1.11-1.13,0-2.59,0-5.18,0-7.77a1.61,1.61,0,0,1,.4-1.15,13.49,13.49,0,0,1,1.4-1.44c0,.19,0,.38,0,.57V22a2.66,2.66,0,0,1-3,3H13.7a2.69,2.69,0,0,1-3-3V11.8A2.64,2.64,0,0,1,13.47,9c3.27,0,6.54,0,9.8,0A3.36,3.36,0,0,1,23.66,9Z"/><path class="cls-4" d="M18.25,17.18A24.25,24.25,0,0,1,22.07,12c1.2-1.2,2.52-2.29,3.82-3.39.52-.44,1-.4,1.32,0s.28.85-.25,1.34a24.85,24.85,0,0,0-6.39,10c-.59,1.67-2,1.72-2.94.72s-2.08-2.07-3.12-3.1c-.54-.53-.63-1.1-.26-1.56s.92-.53,1.58-.15Z"/></g></g></svg>