<svg xmlns="http://www.w3.org/2000/svg" width="45.1" height="35" viewBox="0 0 45.1 35"><defs><style>.cls-1{fill:none;}.cls-2{fill:#d84012;}.cls-3{fill:#002fa6;}.cls-4{fill:#fff;}</style></defs><g id="Layer_2" data-name="Layer 2"><g id="upload"><rect class="cls-1" width="45.1" height="35"/><g id="Orange_BG" data-name="Orange BG"><path class="cls-2" d="M32.9,6.58v24A4.43,4.43,0,0,1,29.14,35h0a4.44,4.44,0,0,1-.63,0h-24A4.43,4.43,0,0,1,.05,30.57v-24A4.36,4.36,0,0,1,.63,4.39,4.42,4.42,0,0,1,4.48,2.15h24a4.44,4.44,0,0,1,4.22,3.07A4.35,4.35,0,0,1,32.9,6.58Z"/></g><g id="Blue_BG" data-name="Blue BG"><path class="cls-3" d="M35.05,4.4V28.16a4.39,4.39,0,0,1-3.73,4.34h0c-.2,0-.41,0-.62,0H6.89A4.4,4.4,0,0,1,2.5,28.16V4.4A4.4,4.4,0,0,1,6.89,0H30.66a4.42,4.42,0,0,1,4.39,4.4Z"/></g><path class="cls-4" d="M19.16,20.92H17.84c-.67,0-.81-.14-.82-.8,0-2.17-.08-4.33-.09-6.5,0-.49-.15-.65-.63-.61a17.36,17.36,0,0,1-2,0,.85.85,0,0,1-.61-.31c-.07-.13.06-.46.21-.61,1.55-1.61,3.13-3.2,4.69-4.81a.57.57,0,0,1,.94,0c1.61,1.59,3.23,3.16,4.83,4.75.13.14.26.43.19.57a.76.76,0,0,1-.54.35c-.73.05-1.47.05-2.2,0-.41,0-.54.13-.53.54.05,2.15.07,4.3.1,6.45,0,.8-.07.89-.86.92H19.16Z"/><path class="cls-4" d="M26.18,23.94c0-.22,0-.41,0-.61,0-1.14,0-2.27,0-3.41,0-.81.45-1.31,1.11-1.31s1.11.51,1.11,1.3v5a1.13,1.13,0,0,1-1.29,1.28H11.05c-.91,0-1.31-.4-1.31-1.31,0-1.67,0-3.35,0-5a1.12,1.12,0,1,1,2.22,0c0,1.12,0,2.24,0,3.36v.7Z"/></g></g></svg>